<?xml version="1.0" encoding="UTF-8" standalone="no"?>
<svg
   xmlns:dc="http://purl.org/dc/elements/1.1/"
   xmlns:cc="http://creativecommons.org/ns#"
   xmlns:rdf="http://www.w3.org/1999/02/22-rdf-syntax-ns#"
   xmlns:svg="http://www.w3.org/2000/svg"
   xmlns="http://www.w3.org/2000/svg"
   xmlns:sodipodi="http://sodipodi.sourceforge.net/DTD/sodipodi-0.dtd"
   xmlns:inkscape="http://www.inkscape.org/namespaces/inkscape"
   width="1280"
   height="768"
   viewBox="0 0 338.66666 203.2"
   version="1.1"
   id="svg8"
   inkscape:version="1.0.2 (e86c870879, 2021-01-15)"
   sodipodi:docname="logo.svg">
  <defs
     id="defs2" />
  <sodipodi:namedview
     id="base"
     pagecolor="#ffffff"
     bordercolor="#666666"
     borderopacity="1.0"
     inkscape:pageopacity="0.0"
     inkscape:pageshadow="2"
     inkscape:zoom="0.49497475"
     inkscape:cx="207.31155"
     inkscape:cy="641.17369"
     inkscape:document-units="px"
     inkscape:current-layer="layer1"
     inkscape:document-rotation="0"
     showgrid="false"
     inkscape:window-width="2560"
     inkscape:window-height="1003"
     inkscape:window-x="1920"
     inkscape:window-y="0"
     inkscape:window-maximized="1"
     units="px" />
  <metadata
     id="metadata5">
    <rdf:RDF>
      <cc:Work
         rdf:about="">
        <dc:format>image/svg+xml</dc:format>
        <dc:type
           rdf:resource="http://purl.org/dc/dcmitype/StillImage" />
        <dc:title></dc:title>
      </cc:Work>
    </rdf:RDF>
  </metadata>
  <g
     inkscape:label="Layer 1"
     inkscape:groupmode="layer"
     id="layer1">
    <g
       id="g996">
      <path
         style="fill:#1c0658;fill-opacity:1;stroke:none;stroke-width:0.24912px;stroke-linecap:butt;stroke-linejoin:miter;stroke-opacity:1"
         d="M 169.64065,16.686101 305.42234,84.171829 170.37624,186.5139 33.244323,83.848827 Z"
         id="path847"
         sodipodi:nodetypes="ccccc" />
      <path
         style="fill:none;stroke:#36cdc4;stroke-width:3.98593;stroke-linecap:round;stroke-linejoin:round;stroke-miterlimit:4;stroke-dasharray:none;stroke-opacity:1"
         d="M 20.28389,83.259138 169.517,8.0797314 318.38278,82.745442 170.06577,195.12029 Z"
         id="path849" />
      <path
         d="m 60.354427,124.64362 q 3.309999,2.00606 5.516665,5.71727 2.306969,3.71121 2.306969,9.93 0,6.11848 -3.911817,11.13363 -7.221816,9.42849 -21.966357,9.42849 -6.419392,0 -12.738481,-1.80546 -6.218786,-1.90576 -9.227877,-3.81151 l -3.00909,-1.80546 4.313029,-8.62605 q 7.221817,3.5106 13.039391,3.5106 5.817574,0 5.817574,-3.71121 0,-2.10636 -2.306969,-3.91182 -2.206666,-1.90575 -5.516665,-3.61091 -3.209696,-1.70515 -6.519695,-3.91181 -3.209696,-2.30697 -5.516666,-6.31909 -2.206666,-4.11242 -2.206666,-9.52879 0,-9.62909 7.32212,-14.64424 7.422422,-5.015145 17.853934,-5.015145 6.218786,0 11.635148,1.504545 5.516665,1.50454 7.823634,3.00909 l 2.407272,1.50454 -3.911817,8.52576 q -5.115453,-2.20667 -10.331209,-2.20667 -5.115453,0 -5.115453,3.91182 0,2.10636 2.206666,3.81151 2.306969,1.70516 5.516665,3.31 3.309999,1.50455 6.519695,3.61091 z"
         style="font-size:100.303px;line-height:1.25;font-family:'Wendy One';-inkscape-font-specification:'Wendy One';letter-spacing:0px;fill:#f3c05e;fill-opacity:1;stroke:#000000;stroke-width:10.5833;stroke-linecap:square;stroke-linejoin:round;stroke-miterlimit:4;stroke-dasharray:none;stroke-opacity:1;paint-order:stroke fill markers"
         id="path907" />
      <path
         d="m 78.709689,159.84998 -6.01818,-60.783623 h 31.595441 l -4.513631,45.236653 18.154841,-1.00303 -5.71727,16.55 z"
         style="font-size:100.303px;line-height:1.25;font-family:'Wendy One';-inkscape-font-specification:'Wendy One';letter-spacing:0px;fill:#f3c05e;fill-opacity:1;stroke:#000000;stroke-width:10.5833;stroke-linecap:square;stroke-linejoin:round;stroke-miterlimit:4;stroke-dasharray:none;stroke-opacity:1;paint-order:stroke fill markers"
         id="path909" />
      <path
         d="m 295.76496,159.84998 -2.30697,-23.06969 -17.85394,1.60484 -2.10636,21.46485 h -19.55908 l -6.01818,-60.783623 h 31.59544 l -2.30697,23.169993 h 14.84485 l -2.30697,-23.169993 h 31.59544 l -6.01818,60.783623 z"
         style="font-size:100.303px;line-height:1.25;font-family:'Wendy One';-inkscape-font-specification:'Wendy One';letter-spacing:0px;fill:#f3c05e;fill-opacity:1;stroke:#000000;stroke-width:10.5833;stroke-linecap:square;stroke-linejoin:round;stroke-miterlimit:4;stroke-dasharray:none;stroke-opacity:1;paint-order:stroke fill markers"
         id="path915" />
      <path
         d="m 235.10947,124.64362 q 3.31,2.00606 5.51667,5.71727 2.30697,3.71121 2.30697,9.93 0,6.11848 -3.91182,11.13363 -7.22182,9.42849 -21.96636,9.42849 -6.41939,0 -12.73848,-1.80546 -6.21878,-1.90576 -9.22787,-3.81151 l -3.00909,-1.80546 4.31302,-8.62605 q 7.22182,3.5106 13.03939,3.5106 5.81758,0 5.81758,-3.71121 0,-2.10636 -2.30697,-3.91182 -2.20667,-1.90575 -5.51667,-3.61091 -3.20969,-1.70515 -6.51969,-3.91181 -3.2097,-2.30697 -5.51667,-6.31909 -2.20666,-4.11242 -2.20666,-9.52879 0,-9.62909 7.32212,-14.64424 7.42242,-5.015145 17.85393,-5.015145 6.21879,0 11.63515,1.504545 5.51666,1.50454 7.82363,3.00909 l 2.40728,1.50454 -3.91182,8.52576 q -5.11545,-2.20667 -10.33121,-2.20667 -5.11545,0 -5.11545,3.91182 0,2.10636 2.20666,3.81151 2.30697,1.70516 5.51667,3.31 3.31,1.50455 6.51969,3.61091 z"
         style="font-size:100.303px;line-height:1.25;font-family:'Wendy One';-inkscape-font-specification:'Wendy One';letter-spacing:0px;fill:#f3c05e;fill-opacity:1;stroke:#000000;stroke-width:10.5833;stroke-linecap:square;stroke-linejoin:round;stroke-miterlimit:4;stroke-dasharray:none;stroke-opacity:1;paint-order:stroke fill markers"
         id="path913" />
      <g
         aria-label="Blacken"
         transform="rotate(-4.8012003)"
         id="text865"
         style="font-size:75.113px;line-height:1.25;font-family:'Wendy One';-inkscape-font-specification:'Wendy One';fill:#ff1690;fill-opacity:1;stroke:#000000;stroke-width:10.5833;stroke-linecap:round;stroke-linejoin:round;stroke-miterlimit:4;stroke-dasharray:none;stroke-opacity:1;paint-order:stroke fill markers">
        <path
           d="m 117.27689,56.200678 q 0,1.760461 -1.3937,3.924361 -1.3937,2.127223 -3.59427,4.3278 -2.1639,2.163899 -4.84127,4.254447 -2.67737,2.053871 -5.28139,3.704303 -2.16389,1.357022 -4.18109,2.493986 -1.980518,1.100288 -3.740979,2.090548 -1.723785,0.990259 -3.154159,1.907166 -1.430375,0.88023 -2.493987,1.797137 2.640692,0.476791 4.694563,0.953583 2.053871,0.440115 3.264188,1.063612 0.88023,0.623496 1.797137,1.870489 0.916907,1.210317 1.650437,2.493987 0.73352,1.283669 1.17364,2.347281 0.47679,1.026935 0.47679,1.246993 0,1.613756 -0.84356,3.410893 -0.80687,1.797137 -2.273926,3.594274 -1.430374,1.760461 -3.447569,3.410892 -1.980518,1.65043 -4.364476,2.97078 -2.347281,1.35702 -4.987973,2.27393 -2.640691,0.95358 -5.354735,1.24699 -1.210317,-0.99026 -2.347281,-2.12722 -1.136964,-1.10029 -2.053871,-2.05387 -0.916907,-0.99026 -1.540403,-1.68711 -0.623497,-0.73353 -0.770202,-0.91691 -1.320346,2.05387 -2.677368,3.74098 -1.357022,1.68711 -2.714044,2.82407 -1.320345,1.17364 -2.677367,1.76046 -1.320346,0.6235 -2.640692,0.55015 -0.550144,-0.0367 -1.136964,-0.44012 -0.58682,-0.36676 -1.136964,-0.95358 -0.550144,-0.58682 -1.026936,-1.28367 -0.513468,-0.69685 -0.88023,-1.35702 -0.403439,-0.6235 -0.623497,-1.17364 -0.220057,-0.51347 -0.220057,-0.73353 0,-3.851006 1.650432,-8.582244 1.613755,-4.731239 4.437828,-9.792564 2.824073,-5.061325 6.675081,-10.12265 3.851008,-5.098002 8.288837,-9.645859 1.467051,-5.281383 2.383957,-10.269355 0.916907,-4.987973 0.99026,-9.132391 2.420633,1.283669 3.887684,2.530662 1.467051,1.210317 2.310605,2.1639 0.953583,1.136964 1.393698,2.1639 0.220058,0.660173 0.220058,1.87049 0,0.220057 -0.03668,0.476791 0,0.220058 -0.03668,0.476792 5.134678,-3.667627 10.196008,-5.831527 5.098,-2.200576 9.75588,-2.200576 0.58682,0 1.35702,0.440115 0.77021,0.440115 1.54041,1.173641 0.80688,0.733525 1.57708,1.650432 0.80688,0.88023 1.3937,1.833813 0.62349,0.916907 0.99026,1.797137 0.36676,0.843554 0.36676,1.467051 z M 82.544461,82.607592 q -1.943842,4.987972 -4.181095,9.682535 -2.200576,4.657886 -4.62121,8.435543 4.181095,-0.36676 7.77537,-1.210318 3.594274,-0.880231 6.491699,-2.310605 2.897425,-1.430375 5.061325,-3.520922 2.200576,-2.090547 3.594275,-4.91462 Q 95.931299,88.365766 95.051069,88.03568 94.207515,87.705593 93.253932,87.448859 92.300349,87.192125 91.310089,87.008744 90.356506,86.788686 89.4396,86.605305 87.312376,86.238542 85.038447,86.018485 84.52498,85.945132 83.82813,84.918197 83.167958,83.891261 82.544461,82.607592 Z m 5.721498,-17.421228 q -0.623497,2.273929 -1.393698,4.767915 -0.733526,2.45731 -1.613756,5.098001 3.300864,-2.677367 7.07852,-5.061325 3.814332,-2.383957 7.555311,-4.841267 3.740984,-2.493987 7.078524,-5.281383 3.33754,-2.824073 5.72149,-6.381671 0.14671,-0.183381 0.11003,-0.440115 0,-0.256734 -0.1467,-0.476792 -0.14671,-0.256733 -0.40344,-0.403439 -0.22006,-0.183381 -0.55015,-0.183381 -2.05387,0 -4.73123,0.990259 -2.6407,0.953583 -5.68483,2.714044 -3.044126,1.723785 -6.381666,4.181095 -3.300864,2.420634 -6.638405,5.318059 z M 63.106038,102.70619 q 0.330087,0 0.953583,-0.80688 0.660173,-0.84355 1.503727,-2.310606 0.880231,-1.503727 1.907166,-3.594274 1.063612,-2.127224 2.200577,-4.657886 1.136964,-2.567339 2.310605,-5.501441 1.210316,-2.934101 2.383957,-6.08826 -2.1639,2.75072 -4.071066,5.574793 -1.907166,2.787396 -3.447569,5.574793 -1.503727,2.787396 -2.604015,5.538116 -1.063612,2.714044 -1.57708,5.281385 -0.110029,0.51347 0.03668,0.7702 0.183381,0.22006 0.403438,0.22006 z"
           style="font-style:normal;font-variant:normal;font-weight:normal;font-stretch:normal;font-family:Yesteryear;-inkscape-font-specification:Yesteryear;fill:#ff1690;fill-opacity:1;stroke:#000000;stroke-width:10.5833;stroke-linecap:round;stroke-linejoin:round;stroke-miterlimit:4;stroke-dasharray:none;stroke-opacity:1;paint-order:stroke fill markers"
           id="path942" />
        <path
           d="m 115.77316,100.87237 q 0.58682,0 1.57708,-0.51346 1.02693,-0.513472 2.23725,-1.283673 1.21032,-0.806878 2.53066,-1.760461 1.32035,-0.953583 2.45731,-1.87049 1.17364,-0.916907 2.09055,-1.687108 0.91691,-0.770202 1.35702,-1.136965 0.33009,0.330087 0.7702,0.843554 0.4768,0.513468 0.88024,0.953583 -0.80688,0.806878 -2.0172,1.980519 -1.21032,1.136964 -2.64069,2.347281 -1.3937,1.210317 -2.9341,2.42063 -1.50373,1.21032 -2.97078,2.1639 -1.43037,0.95359 -2.67737,1.54041 -1.24699,0.58682 -2.09055,0.58682 -1.13696,0 -2.42063,-0.80688 -1.24699,-0.80688 -2.34728,-1.87049 -1.10029,-1.10029 -1.87049,-2.20058 -0.7702,-1.100285 -0.88023,-1.650429 -0.0734,-0.220057 -0.0734,-0.513467 0,-0.330087 0,-0.696849 0,-1.833814 0.47679,-4.62121 0.44011,-2.824073 1.21032,-5.941556 0.7702,-3.154159 1.76046,-6.234966 1.02693,-3.117483 2.12722,-5.50144 2.23725,-4.877944 4.58453,-8.6556 2.38396,-3.777655 4.65789,-6.565052 2.27393,-2.824072 4.36448,-4.731238 2.09054,-1.907166 3.74098,-3.080807 1.6871,-1.173641 2.82407,-1.687108 1.17364,-0.513468 1.61375,-0.513468 0.69685,0.256734 1.3937,0.770202 0.73353,0.476791 1.35702,1.026935 0.6235,0.550144 1.10029,1.100288 0.47679,0.513468 0.69685,0.770202 0.29341,0.29341 0.36676,0.58682 0.11003,0.256734 0.11003,0.696849 0,0.880231 -0.44011,2.420634 -0.44012,1.540403 -1.65043,3.924361 -1.21032,2.347281 -3.37422,5.648145 -2.12723,3.300864 -5.57479,7.702017 -1.61376,2.053871 -3.4109,4.181094 -1.5404,1.833814 -3.5576,3.997714 -2.01719,2.1639 -4.14441,4.144418 -1.06362,4.03439 -1.50373,7.115196 -0.40344,3.080807 -0.40344,4.804592 0,1.136963 0.18338,1.467053 0.18338,0.33008 0.51347,0.33008 z m 5.8682,-26.883702 q -0.62349,1.393699 -1.17364,2.714044 -0.51347,1.320346 -0.99026,2.604016 1.13697,-1.28367 2.05387,-2.457311 0.95359,-1.17364 1.61376,-2.017194 0.7702,-0.99026 1.3937,-1.87049 2.56734,-3.594274 4.43783,-6.601728 1.87049,-3.007455 3.0808,-5.281383 1.21032,-2.310605 1.76046,-3.814332 0.58682,-1.540403 0.58682,-2.200576 0,-0.183382 -0.0367,-0.256734 0,-0.110029 -0.18338,-0.110029 -0.33009,0 -1.50373,1.100288 -1.17364,1.063612 -2.89743,3.410893 -1.6871,2.347281 -3.81433,6.014908 -2.09055,3.630951 -4.3278,8.765628 z"
           style="font-style:normal;font-variant:normal;font-weight:normal;font-stretch:normal;font-family:Yesteryear;-inkscape-font-specification:Yesteryear;fill:#ff1690;fill-opacity:1;stroke:#000000;stroke-width:10.5833;stroke-linecap:round;stroke-linejoin:round;stroke-miterlimit:4;stroke-dasharray:none;stroke-opacity:1;paint-order:stroke fill markers"
           id="path944" />
        <path
           d="m 148.59842,100.2122 q 0,0.22006 0.22006,0.22006 0.33008,0 1.10029,-0.476793 0.7702,-0.476792 1.76046,-1.210317 0.99026,-0.733525 2.09054,-1.650432 1.13697,-0.916907 2.1639,-1.797137 1.02694,-0.880231 1.83382,-1.613756 0.84355,-0.733525 1.28367,-1.136964 0.33008,0.330086 0.80688,0.88023 0.51346,0.550144 0.9169,0.990259 -0.88023,0.806878 -2.12722,1.980519 -1.21032,1.136964 -2.64069,2.383957 -1.3937,1.246994 -2.89743,2.493984 -1.50373,1.21032 -2.9341,2.1639 -1.43037,0.95359 -2.71404,1.54041 -1.28367,0.62349 -2.23726,0.62349 -0.66017,0 -1.46705,-0.25673 -0.7702,-0.25674 -1.43037,-0.73353 -0.66017,-0.44011 -1.10029,-1.06361 -0.44011,-0.6235 -0.44011,-1.3937 0,-0.29341 -0.0367,-0.69685 0,-0.44011 0.0734,-1.10028 0.0734,-0.696853 0.29341,-1.650436 0.22006,-0.990259 0.66017,-2.420634 -1.21031,1.283669 -2.86074,2.677368 -1.61376,1.393702 -3.4109,2.640692 -1.79713,1.24699 -3.63095,2.23725 -1.79714,1.02694 -3.33754,1.5404 -0.18338,0.0734 -0.29341,0.0734 -0.11003,0 -0.22006,0 -0.36676,0 -0.95358,-0.36677 -0.6235,-0.36676 -1.21032,-0.99025 -0.58682,-0.58682 -0.99026,-1.35703 -0.44011,-0.7702 -0.44011,-1.5404 0,-0.22006 0.22006,-1.467051 0.22005,-1.246993 1.06361,-3.154159 0.80688,-1.943842 2.42063,-4.3278 1.61376,-2.420633 4.40115,-4.951296 1.43038,-1.283669 3.08081,-2.420634 1.3937,-0.953583 3.19084,-1.943842 1.79713,-0.990259 3.77765,-1.577079 0.0734,0 0.11003,-0.03668 0.0733,-0.03668 0.18338,0.03668 0.44012,0.146705 1.02694,0.476791 0.62349,0.29341 1.21031,0.660173 0.6235,0.330086 1.06362,0.696849 0.47679,0.330086 0.62349,0.550144 0.0367,0.07335 0,0.110029 l -0.0734,0.07335 q -1.65043,0.880231 -3.11748,1.980519 -1.46705,1.063612 -2.60402,2.017195 -1.32034,1.136964 -2.45731,2.237252 -2.67736,2.640692 -3.7043,4.584534 -1.02694,1.907166 -1.02694,2.75072 0,0.623497 0.51347,0.623497 0.51347,0 1.28367,-0.403439 0.80688,-0.440116 1.79714,-1.136965 0.99026,-0.733525 2.1639,-1.687108 1.21032,-0.990259 2.49398,-2.053871 1.13697,-0.916907 2.20058,-1.980519 0.91691,-0.88023 1.90717,-2.017195 0.99026,-1.136964 1.68711,-2.310604 0,-0.03668 0.0367,-0.07335 0.0367,-0.03668 0.11003,0 0.40344,0.29341 0.91691,0.990259 0.51346,0.660173 0.95358,1.467051 0.44012,0.806878 0.73353,1.57708 0.33008,0.733525 0.33008,1.136964 -0.84355,1.723785 -1.32034,3.154159 -0.44012,1.393698 -0.69685,2.45731 -0.22006,1.063612 -0.29341,1.833814 -0.0367,0.733525 -0.0367,1.136963 z"
           style="font-style:normal;font-variant:normal;font-weight:normal;font-stretch:normal;font-family:Yesteryear;-inkscape-font-specification:Yesteryear;fill:#ff1690;fill-opacity:1;stroke:#000000;stroke-width:10.5833;stroke-linecap:round;stroke-linejoin:round;stroke-miterlimit:4;stroke-dasharray:none;stroke-opacity:1;paint-order:stroke fill markers"
           id="path946" />
        <path
           d="m 162.13196,106.15376 q -0.66017,0 -1.50372,-0.44012 -0.84356,-0.40344 -1.72379,-1.13696 -0.88023,-0.69685 -1.68711,-1.65044 -0.84355,-0.99025 -1.3937,-2.05387 -0.22005,-0.40344 -0.29341,-0.916903 -0.0733,-0.513468 -0.0733,-1.320346 0,-2.090547 0.66017,-4.181094 0.6235,-2.127224 1.76046,-4.03439 1.13697,-1.907166 2.75073,-3.557598 1.57707,-1.687108 3.44756,-2.897425 1.87049,-1.210317 3.99772,-1.907166 2.12722,-0.696849 4.3278,-0.696849 0.33008,0 0.88023,0.366762 0.58682,0.330087 1.24699,0.916907 0.66017,0.58682 1.32035,1.320346 0.69685,0.733525 1.24699,1.503727 0.55014,0.733525 0.88023,1.46705 0.36676,0.69685 0.36676,1.246994 -0.18338,0.696849 -1.13696,1.540403 -0.95358,0.806878 -2.27393,1.540403 -1.28367,0.696849 -2.71404,1.173641 -1.43038,0.476791 -2.49399,0.476791 -0.6235,0 -0.6235,-0.366762 0,-0.403439 0.55015,-1.173641 0.55014,-0.806878 1.21031,-1.723785 0.69685,-0.953583 1.247,-1.870489 0.55014,-0.953583 0.55014,-1.613756 0,-0.330087 -0.18338,-0.550144 -0.14671,-0.220058 -0.44012,-0.220058 -0.80687,0 -1.6871,0.733526 -0.88023,0.733525 -1.76046,1.943842 -0.88023,1.210317 -1.68711,2.787396 -0.80688,1.540404 -1.43038,3.190836 -0.58682,1.650432 -0.95358,3.300864 -0.36676,1.650432 -0.36676,3.007458 0,0.80687 0.47679,1.13696 0.47679,0.29341 1.46705,0.29341 2.45731,0 4.73124,-0.80688 2.3106,-0.84355 4.40115,-2.127221 2.12722,-1.320346 4.03439,-2.934102 1.90717,-1.613755 3.59427,-3.227511 0.40344,0.476791 0.99026,0.953583 0.58682,0.440115 0.88023,0.770201 -2.27392,2.383958 -4.84126,4.547858 -2.53067,2.127222 -5.35474,3.740982 -2.82407,1.57708 -5.94155,2.49398 -3.08081,0.95359 -6.45503,0.95359 z"
           style="font-style:normal;font-variant:normal;font-weight:normal;font-stretch:normal;font-family:Yesteryear;-inkscape-font-specification:Yesteryear;fill:#ff1690;fill-opacity:1;stroke:#000000;stroke-width:10.5833;stroke-linecap:round;stroke-linejoin:round;stroke-miterlimit:4;stroke-dasharray:none;stroke-opacity:1;paint-order:stroke fill markers"
           id="path948" />
        <path
           d="m 203.06268,99.772086 q 0.58682,0 1.46705,-0.440116 0.91691,-0.440115 1.98052,-1.100288 1.06361,-0.696849 2.1639,-1.540403 1.13697,-0.843554 2.12723,-1.650432 1.02693,-0.806878 1.83381,-1.503727 0.80688,-0.696849 1.24699,-1.063612 0.33009,0.330087 0.7702,0.843554 0.4768,0.513468 0.88023,0.953583 -0.80687,0.806878 -2.01719,1.980519 -1.21032,1.136964 -2.64069,2.347281 -1.3937,1.210317 -2.9341,2.420635 -1.50373,1.21032 -2.97078,2.1639 -1.43038,0.95358 -2.67737,1.5404 -1.24699,0.58682 -2.09055,0.58682 -1.43037,0 -2.60401,-0.58682 -1.13697,-0.55014 -2.09055,-1.43037 -0.91691,-0.91691 -1.72378,-2.05387 -0.80688,-1.17364 -1.50373,-2.383961 -0.6235,0.806878 -1.28367,1.797141 -0.6235,0.95358 -1.17364,1.83381 -0.55014,0.88023 -0.91691,1.5404 -0.36676,0.66018 -0.47679,0.80688 -0.0734,0.29341 -0.22006,0.40344 -0.1467,0.1467 -0.47679,0.1467 -0.55014,0 -1.32034,-0.44011 -0.73353,-0.40344 -1.50373,-1.10029 -0.7702,-0.69685 -1.50373,-1.50373 -0.7702,-0.84355 -1.32034,-1.6871 -0.29341,-0.40344 -0.36677,-0.916911 -0.0734,-0.513467 -0.0734,-1.246993 0,-2.420634 0.58682,-5.464764 0.58682,-3.04413 1.65043,-6.381671 1.06362,-3.374216 2.53067,-6.931815 1.50372,-3.594274 3.30086,-7.078519 1.79714,-3.520922 3.88769,-6.858463 2.09054,-3.33754 4.32779,-6.234965 2.23726,-2.897426 4.58454,-5.208031 2.34728,-2.310605 4.73124,-3.777655 0.36676,-0.220058 0.66017,-0.293411 0.33009,-0.07335 0.55014,-0.07335 0.44012,0 1.247,0.513468 0.80688,0.476791 1.68711,1.17364 0.9169,0.696849 1.6871,1.393698 0.80688,0.69685 1.17364,1.136965 0.22006,0.330086 0.22006,0.953583 0,2.420634 -1.61375,6.051584 -1.61376,3.594275 -4.54786,7.958751 -2.9341,4.327799 -7.1152,9.205743 -4.14442,4.877944 -9.24242,9.792564 -0.55014,1.87049 -1.06361,3.740979 -0.51347,1.833814 -0.95358,3.704304 3.44757,-4.951297 6.08826,-7.812046 2.67737,-2.897425 4.58453,-4.364476 1.90717,-1.503727 3.08081,-1.907166 1.21032,-0.440115 1.68711,-0.440115 0.44011,0 1.02693,0.476792 0.6235,0.440115 1.17364,1.063611 0.55015,0.586821 0.99026,1.173641 0.44012,0.550144 0.58682,0.806878 0.0367,0.366763 -0.7702,1.503727 -0.80688,1.100288 -2.23725,2.567339 -1.43038,1.46705 -3.41089,3.117483 -1.94385,1.613755 -4.25445,3.007454 1.17364,1.687108 2.01719,2.640691 0.84356,0.953583 1.43038,1.430375 0.66017,0.550144 1.13696,0.696849 z m -3.92436,-29.597749 q -1.10029,2.200576 -2.27393,4.877943 -1.13696,2.677368 -2.27393,5.684822 4.07107,-4.62121 6.93182,-8.582247 2.89742,-3.961037 4.73124,-7.151872 1.87049,-3.227512 2.71404,-5.684822 0.84356,-2.45731 0.84356,-4.107742 0,-0.110029 -0.0367,-0.220058 0,-0.146705 -0.18338,-0.146705 -0.44012,0 -1.43038,1.026936 -0.99026,1.026935 -2.38395,3.007454 -1.3937,1.980518 -3.11749,4.841267 -1.6871,2.824073 -3.52092,6.455024 z"
           style="font-style:normal;font-variant:normal;font-weight:normal;font-stretch:normal;font-family:Yesteryear;-inkscape-font-specification:Yesteryear;fill:#ff1690;fill-opacity:1;stroke:#000000;stroke-width:10.5833;stroke-linecap:round;stroke-linejoin:round;stroke-miterlimit:4;stroke-dasharray:none;stroke-opacity:1;paint-order:stroke fill markers"
           id="path950" />
        <path
           d="m 239.0421,94.41735 q -3.37422,3.300865 -6.38168,5.538117 -2.97077,2.237253 -5.68482,3.594273 -2.71404,1.35702 -5.20803,1.94384 -2.45731,0.58682 -4.80459,0.58682 -0.99026,0 -2.20057,-0.73352 -1.21032,-0.73353 -2.23726,-1.79714 -1.06361,-1.02693 -1.76046,-2.1639 -0.69685,-1.13696 -0.69685,-1.943841 0,-3.007454 0.84356,-5.50144 0.80688,-2.530663 2.1639,-4.547858 1.35702,-2.017194 3.0808,-3.557598 1.76046,-1.540403 3.63095,-2.567338 1.90717,-1.026936 3.77766,-1.540404 1.87049,-0.513468 3.44757,-0.513468 1.13696,0 2.23725,0.660173 1.13697,0.660173 2.05387,1.613756 0.91691,0.953583 1.46705,2.017195 0.58682,1.026936 0.58682,1.797137 0,1.246993 -1.06361,2.567339 -1.02693,1.283669 -2.9341,2.640691 -1.90717,1.357022 -4.58453,2.787397 -2.67737,1.393698 -5.90488,2.824073 -0.11003,0.88023 -0.11003,1.723784 0,1.136962 0.47679,1.540402 0.51347,0.40344 1.87049,0.40344 2.42063,0 4.54786,-0.80688 2.1639,-0.80688 4.14442,-2.090545 1.98051,-1.283669 3.81433,-2.934101 1.83381,-1.650432 3.63095,-3.337541 z m -12.91005,-9.169067 q -0.73353,0 -1.61376,0.806878 -0.88023,0.770202 -1.76046,2.053871 -0.88023,1.283669 -1.68711,2.970778 -0.80687,1.650432 -1.39369,3.447569 1.35702,-0.88023 2.64069,-1.87049 1.32034,-0.990259 2.34728,-2.053871 1.02693,-1.100288 1.65043,-2.237252 0.6235,-1.136964 0.6235,-2.273929 0,-0.330086 -0.22006,-0.58682 -0.18338,-0.256734 -0.58682,-0.256734 z"
           style="font-style:normal;font-variant:normal;font-weight:normal;font-stretch:normal;font-family:Yesteryear;-inkscape-font-specification:Yesteryear;fill:#ff1690;fill-opacity:1;stroke:#000000;stroke-width:10.5833;stroke-linecap:round;stroke-linejoin:round;stroke-miterlimit:4;stroke-dasharray:none;stroke-opacity:1;paint-order:stroke fill markers"
           id="path952" />
        <path
           d="m 247.62435,85.725075 q -0.44011,1.17364 -0.88023,2.383957 -0.44011,1.210317 -0.88023,2.493986 2.31061,-2.640691 3.96104,-4.291123 1.68711,-1.687108 2.82407,-2.640691 1.17364,-0.953583 1.87049,-1.28367 0.73353,-0.366763 1.13697,-0.366763 0.47679,0 1.43037,0.476792 0.95358,0.476791 1.90717,1.173641 0.99026,0.696849 1.68711,1.430374 0.73352,0.733525 0.73352,1.283669 0,0.110029 -0.0367,0.293411 -0.0367,0.146705 -0.11002,0.403439 -0.29341,0.916906 -0.77021,2.163899 -0.44011,1.246994 -0.95358,2.604016 -0.51347,1.320345 -1.02693,2.677367 -0.51347,1.320346 -0.91691,2.493986 -0.40344,1.173641 -0.66017,2.053872 -0.25674,0.88023 -0.25674,1.283673 0,0.22005 0.22006,0.22005 0.40344,0 1.21032,-0.47679 0.80687,-0.476789 1.83381,-1.246991 1.06361,-0.770202 2.20058,-1.687108 1.13696,-0.916907 2.1639,-1.797138 1.06361,-0.916906 1.90716,-1.650432 0.84356,-0.733525 1.28367,-1.100288 0.36676,0.330087 0.80688,0.843554 0.44011,0.513468 0.84355,0.953583 -0.80687,0.806878 -2.01719,1.980519 -1.21032,1.136964 -2.64069,2.347281 -1.3937,1.210317 -2.9341,2.42063 -1.50373,1.21032 -2.93411,2.1639 -1.43037,0.95359 -2.67736,1.54041 -1.247,0.58682 -2.09055,0.58682 -0.55014,0 -1.3937,-0.40344 -0.84355,-0.36676 -1.65043,-0.95358 -0.7702,-0.55015 -1.32035,-1.247 -0.55014,-0.69685 -0.55014,-1.35702 0.33009,-1.503727 0.88023,-3.410893 0.58682,-1.907166 1.24699,-3.887684 0.66018,-2.017195 1.35702,-3.961037 0.73353,-1.980519 1.3937,-3.630951 l -0.0734,0.07335 q -0.69685,0.843554 -2.01719,2.237252 -1.28367,1.357022 -2.93411,3.520922 -1.65043,2.127223 -3.48424,5.171354 -1.83382,3.007454 -3.59428,7.151874 -0.22005,0.51347 -0.40343,0.80688 -0.18339,0.29341 -0.69685,0.29341 -0.6235,0 -1.43038,-0.36677 -0.7702,-0.33008 -1.57708,-0.9169 -0.84355,-0.55015 -1.65043,-1.247 -0.84355,-0.69685 -1.50373,-1.39369 0,-0.22006 0.22006,-1.247 0.18338,-1.026933 0.55014,-2.567336 0.36677,-1.57708 0.91691,-3.557599 0.55015,-2.017194 1.24699,-4.217771 0.69685,-2.200576 1.54041,-4.474504 0.80688,-2.310605 1.76046,-4.437829 1.5404,0.733525 3.41089,1.797137 1.90717,1.063612 3.52092,2.493987 z"
           style="font-style:normal;font-variant:normal;font-weight:normal;font-stretch:normal;font-family:Yesteryear;-inkscape-font-specification:Yesteryear;fill:#ff1690;fill-opacity:1;stroke:#000000;stroke-width:10.5833;stroke-linecap:round;stroke-linejoin:round;stroke-miterlimit:4;stroke-dasharray:none;stroke-opacity:1;paint-order:stroke fill markers"
           id="path954" />
      </g>
      <path
         d="m 168.05193,159.84998 -4.01212,-10.13061 h -25.57726 l -3.81152,10.13061 h -14.24302 l 16.95121,-60.783623 h 35.70786 l 16.95121,60.783623 z m -9.12757,-23.17 -7.92394,-20.0606 -7.62302,20.0606 z"
         style="font-size:100.303px;line-height:1.25;font-family:'Wendy One';-inkscape-font-specification:'Wendy One';letter-spacing:0px;fill:#f3c05e;fill-opacity:1;stroke:#000000;stroke-width:10.5833;stroke-linecap:square;stroke-linejoin:round;stroke-miterlimit:4;stroke-dasharray:none;stroke-opacity:1;paint-order:stroke fill markers"
         id="path911" />
      <path
         style="fill:#000000;fill-opacity:1;stroke:none;stroke-width:0.24912px;stroke-linecap:butt;stroke-linejoin:miter;stroke-opacity:1"
         d="M 87.182066,151.18803 322.09305,122.389 l -1.12881,7.23574 z"
         id="path837"
         sodipodi:nodetypes="cccc" />
      <g
         aria-label="Blacken"
         transform="rotate(-4.8012003)"
         id="text940"
         style="font-size:75.113px;line-height:1.25;font-family:'Wendy One';-inkscape-font-specification:'Wendy One';fill:#ff1690;fill-opacity:1;stroke:none;stroke-width:10.5833;stroke-linecap:round;stroke-linejoin:round;stroke-miterlimit:4;stroke-dasharray:none;stroke-opacity:1;paint-order:stroke fill markers">
        <path
           d="m 117.27689,56.200678 q 0,1.760461 -1.3937,3.924361 -1.3937,2.127223 -3.59427,4.3278 -2.1639,2.163899 -4.84127,4.254447 -2.67737,2.053871 -5.28139,3.704303 -2.16389,1.357022 -4.18109,2.493986 -1.980518,1.100288 -3.740979,2.090548 -1.723785,0.990259 -3.154159,1.907166 -1.430375,0.88023 -2.493987,1.797137 2.640692,0.476791 4.694563,0.953583 2.053871,0.440115 3.264188,1.063612 0.88023,0.623496 1.797137,1.870489 0.916907,1.210317 1.650437,2.493987 0.73352,1.283669 1.17364,2.347281 0.47679,1.026935 0.47679,1.246993 0,1.613756 -0.84356,3.410893 -0.80687,1.797137 -2.273926,3.594274 -1.430374,1.760461 -3.447569,3.410892 -1.980518,1.65043 -4.364476,2.97078 -2.347281,1.35702 -4.987973,2.27393 -2.640691,0.95358 -5.354735,1.24699 -1.210317,-0.99026 -2.347281,-2.12722 -1.136964,-1.10029 -2.053871,-2.05387 -0.916907,-0.99026 -1.540403,-1.68711 -0.623497,-0.73353 -0.770202,-0.91691 -1.320346,2.05387 -2.677368,3.74098 -1.357022,1.68711 -2.714044,2.82407 -1.320345,1.17364 -2.677367,1.76046 -1.320346,0.6235 -2.640692,0.55015 -0.550144,-0.0367 -1.136964,-0.44012 -0.58682,-0.36676 -1.136964,-0.95358 -0.550144,-0.58682 -1.026936,-1.28367 -0.513468,-0.69685 -0.88023,-1.35702 -0.403439,-0.6235 -0.623497,-1.17364 -0.220057,-0.51347 -0.220057,-0.73353 0,-3.851006 1.650432,-8.582244 1.613755,-4.731239 4.437828,-9.792564 2.824073,-5.061325 6.675081,-10.12265 3.851008,-5.098002 8.288837,-9.645859 1.467051,-5.281383 2.383957,-10.269355 0.916907,-4.987973 0.99026,-9.132391 2.420633,1.283669 3.887684,2.530662 1.467051,1.210317 2.310605,2.1639 0.953583,1.136964 1.393698,2.1639 0.220058,0.660173 0.220058,1.87049 0,0.220057 -0.03668,0.476791 0,0.220058 -0.03668,0.476792 5.134678,-3.667627 10.196008,-5.831527 5.098,-2.200576 9.75588,-2.200576 0.58682,0 1.35702,0.440115 0.77021,0.440115 1.54041,1.173641 0.80688,0.733525 1.57708,1.650432 0.80688,0.88023 1.3937,1.833813 0.62349,0.916907 0.99026,1.797137 0.36676,0.843554 0.36676,1.467051 z M 82.544461,82.607592 q -1.943842,4.987972 -4.181095,9.682535 -2.200576,4.657886 -4.62121,8.435543 4.181095,-0.36676 7.77537,-1.210318 3.594274,-0.880231 6.491699,-2.310605 2.897425,-1.430375 5.061325,-3.520922 2.200576,-2.090547 3.594275,-4.91462 Q 95.931299,88.365766 95.051069,88.03568 94.207515,87.705593 93.253932,87.448859 92.300349,87.192125 91.310089,87.008744 90.356506,86.788686 89.4396,86.605305 87.312376,86.238542 85.038447,86.018485 84.52498,85.945132 83.82813,84.918197 83.167958,83.891261 82.544461,82.607592 Z m 5.721498,-17.421228 q -0.623497,2.273929 -1.393698,4.767915 -0.733526,2.45731 -1.613756,5.098001 3.300864,-2.677367 7.07852,-5.061325 3.814332,-2.383957 7.555311,-4.841267 3.740984,-2.493987 7.078524,-5.281383 3.33754,-2.824073 5.72149,-6.381671 0.14671,-0.183381 0.11003,-0.440115 0,-0.256734 -0.1467,-0.476792 -0.14671,-0.256733 -0.40344,-0.403439 -0.22006,-0.183381 -0.55015,-0.183381 -2.05387,0 -4.73123,0.990259 -2.6407,0.953583 -5.68483,2.714044 -3.044126,1.723785 -6.381666,4.181095 -3.300864,2.420634 -6.638405,5.318059 z M 63.106038,102.70619 q 0.330087,0 0.953583,-0.80688 0.660173,-0.84355 1.503727,-2.310606 0.880231,-1.503727 1.907166,-3.594274 1.063612,-2.127224 2.200577,-4.657886 1.136964,-2.567339 2.310605,-5.501441 1.210316,-2.934101 2.383957,-6.08826 -2.1639,2.75072 -4.071066,5.574793 -1.907166,2.787396 -3.447569,5.574793 -1.503727,2.787396 -2.604015,5.538116 -1.063612,2.714044 -1.57708,5.281385 -0.110029,0.51347 0.03668,0.7702 0.183381,0.22006 0.403438,0.22006 z"
           style="font-style:normal;font-variant:normal;font-weight:normal;font-stretch:normal;font-family:Yesteryear;-inkscape-font-specification:Yesteryear;fill:#ff1690;fill-opacity:1;stroke:none;stroke-width:10.5833;stroke-linecap:round;stroke-linejoin:round;stroke-miterlimit:4;stroke-dasharray:none;stroke-opacity:1;paint-order:stroke fill markers"
           id="path957" />
        <path
           d="m 115.77316,100.87237 q 0.58682,0 1.57708,-0.51346 1.02693,-0.513472 2.23725,-1.283673 1.21032,-0.806878 2.53066,-1.760461 1.32035,-0.953583 2.45731,-1.87049 1.17364,-0.916907 2.09055,-1.687108 0.91691,-0.770202 1.35702,-1.136965 0.33009,0.330087 0.7702,0.843554 0.4768,0.513468 0.88024,0.953583 -0.80688,0.806878 -2.0172,1.980519 -1.21032,1.136964 -2.64069,2.347281 -1.3937,1.210317 -2.9341,2.42063 -1.50373,1.21032 -2.97078,2.1639 -1.43037,0.95359 -2.67737,1.54041 -1.24699,0.58682 -2.09055,0.58682 -1.13696,0 -2.42063,-0.80688 -1.24699,-0.80688 -2.34728,-1.87049 -1.10029,-1.10029 -1.87049,-2.20058 -0.7702,-1.100285 -0.88023,-1.650429 -0.0734,-0.220057 -0.0734,-0.513467 0,-0.330087 0,-0.696849 0,-1.833814 0.47679,-4.62121 0.44011,-2.824073 1.21032,-5.941556 0.7702,-3.154159 1.76046,-6.234966 1.02693,-3.117483 2.12722,-5.50144 2.23725,-4.877944 4.58453,-8.6556 2.38396,-3.777655 4.65789,-6.565052 2.27393,-2.824072 4.36448,-4.731238 2.09054,-1.907166 3.74098,-3.080807 1.6871,-1.173641 2.82407,-1.687108 1.17364,-0.513468 1.61375,-0.513468 0.69685,0.256734 1.3937,0.770202 0.73353,0.476791 1.35702,1.026935 0.6235,0.550144 1.10029,1.100288 0.47679,0.513468 0.69685,0.770202 0.29341,0.29341 0.36676,0.58682 0.11003,0.256734 0.11003,0.696849 0,0.880231 -0.44011,2.420634 -0.44012,1.540403 -1.65043,3.924361 -1.21032,2.347281 -3.37422,5.648145 -2.12723,3.300864 -5.57479,7.702017 -1.61376,2.053871 -3.4109,4.181094 -1.5404,1.833814 -3.5576,3.997714 -2.01719,2.1639 -4.14441,4.144418 -1.06362,4.03439 -1.50373,7.115196 -0.40344,3.080807 -0.40344,4.804592 0,1.136963 0.18338,1.467053 0.18338,0.33008 0.51347,0.33008 z m 5.8682,-26.883702 q -0.62349,1.393699 -1.17364,2.714044 -0.51347,1.320346 -0.99026,2.604016 1.13697,-1.28367 2.05387,-2.457311 0.95359,-1.17364 1.61376,-2.017194 0.7702,-0.99026 1.3937,-1.87049 2.56734,-3.594274 4.43783,-6.601728 1.87049,-3.007455 3.0808,-5.281383 1.21032,-2.310605 1.76046,-3.814332 0.58682,-1.540403 0.58682,-2.200576 0,-0.183382 -0.0367,-0.256734 0,-0.110029 -0.18338,-0.110029 -0.33009,0 -1.50373,1.100288 -1.17364,1.063612 -2.89743,3.410893 -1.6871,2.347281 -3.81433,6.014908 -2.09055,3.630951 -4.3278,8.765628 z"
           style="font-style:normal;font-variant:normal;font-weight:normal;font-stretch:normal;font-family:Yesteryear;-inkscape-font-specification:Yesteryear;fill:#ff1690;fill-opacity:1;stroke:none;stroke-width:10.5833;stroke-linecap:round;stroke-linejoin:round;stroke-miterlimit:4;stroke-dasharray:none;stroke-opacity:1;paint-order:stroke fill markers"
           id="path959" />
        <path
           d="m 148.59842,100.2122 q 0,0.22006 0.22006,0.22006 0.33008,0 1.10029,-0.476793 0.7702,-0.476792 1.76046,-1.210317 0.99026,-0.733525 2.09054,-1.650432 1.13697,-0.916907 2.1639,-1.797137 1.02694,-0.880231 1.83382,-1.613756 0.84355,-0.733525 1.28367,-1.136964 0.33008,0.330086 0.80688,0.88023 0.51346,0.550144 0.9169,0.990259 -0.88023,0.806878 -2.12722,1.980519 -1.21032,1.136964 -2.64069,2.383957 -1.3937,1.246994 -2.89743,2.493984 -1.50373,1.21032 -2.9341,2.1639 -1.43037,0.95359 -2.71404,1.54041 -1.28367,0.62349 -2.23726,0.62349 -0.66017,0 -1.46705,-0.25673 -0.7702,-0.25674 -1.43037,-0.73353 -0.66017,-0.44011 -1.10029,-1.06361 -0.44011,-0.6235 -0.44011,-1.3937 0,-0.29341 -0.0367,-0.69685 0,-0.44011 0.0734,-1.10028 0.0734,-0.696853 0.29341,-1.650436 0.22006,-0.990259 0.66017,-2.420634 -1.21031,1.283669 -2.86074,2.677368 -1.61376,1.393702 -3.4109,2.640692 -1.79713,1.24699 -3.63095,2.23725 -1.79714,1.02694 -3.33754,1.5404 -0.18338,0.0734 -0.29341,0.0734 -0.11003,0 -0.22006,0 -0.36676,0 -0.95358,-0.36677 -0.6235,-0.36676 -1.21032,-0.99025 -0.58682,-0.58682 -0.99026,-1.35703 -0.44011,-0.7702 -0.44011,-1.5404 0,-0.22006 0.22006,-1.467051 0.22005,-1.246993 1.06361,-3.154159 0.80688,-1.943842 2.42063,-4.3278 1.61376,-2.420633 4.40115,-4.951296 1.43038,-1.283669 3.08081,-2.420634 1.3937,-0.953583 3.19084,-1.943842 1.79713,-0.990259 3.77765,-1.577079 0.0734,0 0.11003,-0.03668 0.0733,-0.03668 0.18338,0.03668 0.44012,0.146705 1.02694,0.476791 0.62349,0.29341 1.21031,0.660173 0.6235,0.330086 1.06362,0.696849 0.47679,0.330086 0.62349,0.550144 0.0367,0.07335 0,0.110029 l -0.0734,0.07335 q -1.65043,0.880231 -3.11748,1.980519 -1.46705,1.063612 -2.60402,2.017195 -1.32034,1.136964 -2.45731,2.237252 -2.67736,2.640692 -3.7043,4.584534 -1.02694,1.907166 -1.02694,2.75072 0,0.623497 0.51347,0.623497 0.51347,0 1.28367,-0.403439 0.80688,-0.440116 1.79714,-1.136965 0.99026,-0.733525 2.1639,-1.687108 1.21032,-0.990259 2.49398,-2.053871 1.13697,-0.916907 2.20058,-1.980519 0.91691,-0.88023 1.90717,-2.017195 0.99026,-1.136964 1.68711,-2.310604 0,-0.03668 0.0367,-0.07335 0.0367,-0.03668 0.11003,0 0.40344,0.29341 0.91691,0.990259 0.51346,0.660173 0.95358,1.467051 0.44012,0.806878 0.73353,1.57708 0.33008,0.733525 0.33008,1.136964 -0.84355,1.723785 -1.32034,3.154159 -0.44012,1.393698 -0.69685,2.45731 -0.22006,1.063612 -0.29341,1.833814 -0.0367,0.733525 -0.0367,1.136963 z"
           style="font-style:normal;font-variant:normal;font-weight:normal;font-stretch:normal;font-family:Yesteryear;-inkscape-font-specification:Yesteryear;fill:#ff1690;fill-opacity:1;stroke:none;stroke-width:10.5833;stroke-linecap:round;stroke-linejoin:round;stroke-miterlimit:4;stroke-dasharray:none;stroke-opacity:1;paint-order:stroke fill markers"
           id="path961" />
        <path
           d="m 162.13196,106.15376 q -0.66017,0 -1.50372,-0.44012 -0.84356,-0.40344 -1.72379,-1.13696 -0.88023,-0.69685 -1.68711,-1.65044 -0.84355,-0.99025 -1.3937,-2.05387 -0.22005,-0.40344 -0.29341,-0.916903 -0.0733,-0.513468 -0.0733,-1.320346 0,-2.090547 0.66017,-4.181094 0.6235,-2.127224 1.76046,-4.03439 1.13697,-1.907166 2.75073,-3.557598 1.57707,-1.687108 3.44756,-2.897425 1.87049,-1.210317 3.99772,-1.907166 2.12722,-0.696849 4.3278,-0.696849 0.33008,0 0.88023,0.366762 0.58682,0.330087 1.24699,0.916907 0.66017,0.58682 1.32035,1.320346 0.69685,0.733525 1.24699,1.503727 0.55014,0.733525 0.88023,1.46705 0.36676,0.69685 0.36676,1.246994 -0.18338,0.696849 -1.13696,1.540403 -0.95358,0.806878 -2.27393,1.540403 -1.28367,0.696849 -2.71404,1.173641 -1.43038,0.476791 -2.49399,0.476791 -0.6235,0 -0.6235,-0.366762 0,-0.403439 0.55015,-1.173641 0.55014,-0.806878 1.21031,-1.723785 0.69685,-0.953583 1.247,-1.870489 0.55014,-0.953583 0.55014,-1.613756 0,-0.330087 -0.18338,-0.550144 -0.14671,-0.220058 -0.44012,-0.220058 -0.80687,0 -1.6871,0.733526 -0.88023,0.733525 -1.76046,1.943842 -0.88023,1.210317 -1.68711,2.787396 -0.80688,1.540404 -1.43038,3.190836 -0.58682,1.650432 -0.95358,3.300864 -0.36676,1.650432 -0.36676,3.007458 0,0.80687 0.47679,1.13696 0.47679,0.29341 1.46705,0.29341 2.45731,0 4.73124,-0.80688 2.3106,-0.84355 4.40115,-2.127221 2.12722,-1.320346 4.03439,-2.934102 1.90717,-1.613755 3.59427,-3.227511 0.40344,0.476791 0.99026,0.953583 0.58682,0.440115 0.88023,0.770201 -2.27392,2.383958 -4.84126,4.547858 -2.53067,2.127222 -5.35474,3.740982 -2.82407,1.57708 -5.94155,2.49398 -3.08081,0.95359 -6.45503,0.95359 z"
           style="font-style:normal;font-variant:normal;font-weight:normal;font-stretch:normal;font-family:Yesteryear;-inkscape-font-specification:Yesteryear;fill:#ff1690;fill-opacity:1;stroke:none;stroke-width:10.5833;stroke-linecap:round;stroke-linejoin:round;stroke-miterlimit:4;stroke-dasharray:none;stroke-opacity:1;paint-order:stroke fill markers"
           id="path963" />
        <path
           d="m 203.06268,99.772086 q 0.58682,0 1.46705,-0.440116 0.91691,-0.440115 1.98052,-1.100288 1.06361,-0.696849 2.1639,-1.540403 1.13697,-0.843554 2.12723,-1.650432 1.02693,-0.806878 1.83381,-1.503727 0.80688,-0.696849 1.24699,-1.063612 0.33009,0.330087 0.7702,0.843554 0.4768,0.513468 0.88023,0.953583 -0.80687,0.806878 -2.01719,1.980519 -1.21032,1.136964 -2.64069,2.347281 -1.3937,1.210317 -2.9341,2.420635 -1.50373,1.21032 -2.97078,2.1639 -1.43038,0.95358 -2.67737,1.5404 -1.24699,0.58682 -2.09055,0.58682 -1.43037,0 -2.60401,-0.58682 -1.13697,-0.55014 -2.09055,-1.43037 -0.91691,-0.91691 -1.72378,-2.05387 -0.80688,-1.17364 -1.50373,-2.383961 -0.6235,0.806878 -1.28367,1.797141 -0.6235,0.95358 -1.17364,1.83381 -0.55014,0.88023 -0.91691,1.5404 -0.36676,0.66018 -0.47679,0.80688 -0.0734,0.29341 -0.22006,0.40344 -0.1467,0.1467 -0.47679,0.1467 -0.55014,0 -1.32034,-0.44011 -0.73353,-0.40344 -1.50373,-1.10029 -0.7702,-0.69685 -1.50373,-1.50373 -0.7702,-0.84355 -1.32034,-1.6871 -0.29341,-0.40344 -0.36677,-0.916911 -0.0734,-0.513467 -0.0734,-1.246993 0,-2.420634 0.58682,-5.464764 0.58682,-3.04413 1.65043,-6.381671 1.06362,-3.374216 2.53067,-6.931815 1.50372,-3.594274 3.30086,-7.078519 1.79714,-3.520922 3.88769,-6.858463 2.09054,-3.33754 4.32779,-6.234965 2.23726,-2.897426 4.58454,-5.208031 2.34728,-2.310605 4.73124,-3.777655 0.36676,-0.220058 0.66017,-0.293411 0.33009,-0.07335 0.55014,-0.07335 0.44012,0 1.247,0.513468 0.80688,0.476791 1.68711,1.17364 0.9169,0.696849 1.6871,1.393698 0.80688,0.69685 1.17364,1.136965 0.22006,0.330086 0.22006,0.953583 0,2.420634 -1.61375,6.051584 -1.61376,3.594275 -4.54786,7.958751 -2.9341,4.327799 -7.1152,9.205743 -4.14442,4.877944 -9.24242,9.792564 -0.55014,1.87049 -1.06361,3.740979 -0.51347,1.833814 -0.95358,3.704304 3.44757,-4.951297 6.08826,-7.812046 2.67737,-2.897425 4.58453,-4.364476 1.90717,-1.503727 3.08081,-1.907166 1.21032,-0.440115 1.68711,-0.440115 0.44011,0 1.02693,0.476792 0.6235,0.440115 1.17364,1.063611 0.55015,0.586821 0.99026,1.173641 0.44012,0.550144 0.58682,0.806878 0.0367,0.366763 -0.7702,1.503727 -0.80688,1.100288 -2.23725,2.567339 -1.43038,1.46705 -3.41089,3.117483 -1.94385,1.613755 -4.25445,3.007454 1.17364,1.687108 2.01719,2.640691 0.84356,0.953583 1.43038,1.430375 0.66017,0.550144 1.13696,0.696849 z m -3.92436,-29.597749 q -1.10029,2.200576 -2.27393,4.877943 -1.13696,2.677368 -2.27393,5.684822 4.07107,-4.62121 6.93182,-8.582247 2.89742,-3.961037 4.73124,-7.151872 1.87049,-3.227512 2.71404,-5.684822 0.84356,-2.45731 0.84356,-4.107742 0,-0.110029 -0.0367,-0.220058 0,-0.146705 -0.18338,-0.146705 -0.44012,0 -1.43038,1.026936 -0.99026,1.026935 -2.38395,3.007454 -1.3937,1.980518 -3.11749,4.841267 -1.6871,2.824073 -3.52092,6.455024 z"
           style="font-style:normal;font-variant:normal;font-weight:normal;font-stretch:normal;font-family:Yesteryear;-inkscape-font-specification:Yesteryear;fill:#ff1690;fill-opacity:1;stroke:none;stroke-width:10.5833;stroke-linecap:round;stroke-linejoin:round;stroke-miterlimit:4;stroke-dasharray:none;stroke-opacity:1;paint-order:stroke fill markers"
           id="path965" />
        <path
           d="m 239.0421,94.41735 q -3.37422,3.300865 -6.38168,5.538117 -2.97077,2.237253 -5.68482,3.594273 -2.71404,1.35702 -5.20803,1.94384 -2.45731,0.58682 -4.80459,0.58682 -0.99026,0 -2.20057,-0.73352 -1.21032,-0.73353 -2.23726,-1.79714 -1.06361,-1.02693 -1.76046,-2.1639 -0.69685,-1.13696 -0.69685,-1.943841 0,-3.007454 0.84356,-5.50144 0.80688,-2.530663 2.1639,-4.547858 1.35702,-2.017194 3.0808,-3.557598 1.76046,-1.540403 3.63095,-2.567338 1.90717,-1.026936 3.77766,-1.540404 1.87049,-0.513468 3.44757,-0.513468 1.13696,0 2.23725,0.660173 1.13697,0.660173 2.05387,1.613756 0.91691,0.953583 1.46705,2.017195 0.58682,1.026936 0.58682,1.797137 0,1.246993 -1.06361,2.567339 -1.02693,1.283669 -2.9341,2.640691 -1.90717,1.357022 -4.58453,2.787397 -2.67737,1.393698 -5.90488,2.824073 -0.11003,0.88023 -0.11003,1.723784 0,1.136962 0.47679,1.540402 0.51347,0.40344 1.87049,0.40344 2.42063,0 4.54786,-0.80688 2.1639,-0.80688 4.14442,-2.090545 1.98051,-1.283669 3.81433,-2.934101 1.83381,-1.650432 3.63095,-3.337541 z m -12.91005,-9.169067 q -0.73353,0 -1.61376,0.806878 -0.88023,0.770202 -1.76046,2.053871 -0.88023,1.283669 -1.68711,2.970778 -0.80687,1.650432 -1.39369,3.447569 1.35702,-0.88023 2.64069,-1.87049 1.32034,-0.990259 2.34728,-2.053871 1.02693,-1.100288 1.65043,-2.237252 0.6235,-1.136964 0.6235,-2.273929 0,-0.330086 -0.22006,-0.58682 -0.18338,-0.256734 -0.58682,-0.256734 z"
           style="font-style:normal;font-variant:normal;font-weight:normal;font-stretch:normal;font-family:Yesteryear;-inkscape-font-specification:Yesteryear;fill:#ff1690;fill-opacity:1;stroke:none;stroke-width:10.5833;stroke-linecap:round;stroke-linejoin:round;stroke-miterlimit:4;stroke-dasharray:none;stroke-opacity:1;paint-order:stroke fill markers"
           id="path967" />
        <path
           d="m 247.62435,85.725075 q -0.44011,1.17364 -0.88023,2.383957 -0.44011,1.210317 -0.88023,2.493986 2.31061,-2.640691 3.96104,-4.291123 1.68711,-1.687108 2.82407,-2.640691 1.17364,-0.953583 1.87049,-1.28367 0.73353,-0.366763 1.13697,-0.366763 0.47679,0 1.43037,0.476792 0.95358,0.476791 1.90717,1.173641 0.99026,0.696849 1.68711,1.430374 0.73352,0.733525 0.73352,1.283669 0,0.110029 -0.0367,0.293411 -0.0367,0.146705 -0.11002,0.403439 -0.29341,0.916906 -0.77021,2.163899 -0.44011,1.246994 -0.95358,2.604016 -0.51347,1.320345 -1.02693,2.677367 -0.51347,1.320346 -0.91691,2.493986 -0.40344,1.173641 -0.66017,2.053872 -0.25674,0.88023 -0.25674,1.283673 0,0.22005 0.22006,0.22005 0.40344,0 1.21032,-0.47679 0.80687,-0.476789 1.83381,-1.246991 1.06361,-0.770202 2.20058,-1.687108 1.13696,-0.916907 2.1639,-1.797138 1.06361,-0.916906 1.90716,-1.650432 0.84356,-0.733525 1.28367,-1.100288 0.36676,0.330087 0.80688,0.843554 0.44011,0.513468 0.84355,0.953583 -0.80687,0.806878 -2.01719,1.980519 -1.21032,1.136964 -2.64069,2.347281 -1.3937,1.210317 -2.9341,2.42063 -1.50373,1.21032 -2.93411,2.1639 -1.43037,0.95359 -2.67736,1.54041 -1.247,0.58682 -2.09055,0.58682 -0.55014,0 -1.3937,-0.40344 -0.84355,-0.36676 -1.65043,-0.95358 -0.7702,-0.55015 -1.32035,-1.247 -0.55014,-0.69685 -0.55014,-1.35702 0.33009,-1.503727 0.88023,-3.410893 0.58682,-1.907166 1.24699,-3.887684 0.66018,-2.017195 1.35702,-3.961037 0.73353,-1.980519 1.3937,-3.630951 l -0.0734,0.07335 q -0.69685,0.843554 -2.01719,2.237252 -1.28367,1.357022 -2.93411,3.520922 -1.65043,2.127223 -3.48424,5.171354 -1.83382,3.007454 -3.59428,7.151874 -0.22005,0.51347 -0.40343,0.80688 -0.18339,0.29341 -0.69685,0.29341 -0.6235,0 -1.43038,-0.36677 -0.7702,-0.33008 -1.57708,-0.9169 -0.84355,-0.55015 -1.65043,-1.247 -0.84355,-0.69685 -1.50373,-1.39369 0,-0.22006 0.22006,-1.247 0.18338,-1.026933 0.55014,-2.567336 0.36677,-1.57708 0.91691,-3.557599 0.55015,-2.017194 1.24699,-4.217771 0.69685,-2.200576 1.54041,-4.474504 0.80688,-2.310605 1.76046,-4.437829 1.5404,0.733525 3.41089,1.797137 1.90717,1.063612 3.52092,2.493987 z"
           style="font-style:normal;font-variant:normal;font-weight:normal;font-stretch:normal;font-family:Yesteryear;-inkscape-font-specification:Yesteryear;fill:#ff1690;fill-opacity:1;stroke:none;stroke-width:10.5833;stroke-linecap:round;stroke-linejoin:round;stroke-miterlimit:4;stroke-dasharray:none;stroke-opacity:1;paint-order:stroke fill markers"
           id="path969" />
      </g>
    </g>
  </g>
</svg>
